# xmcd
#
# Track frame offsets: 
#        150
#        22412
#        36262
#        54165
#        70707
#        87377
#        101850
#        121715
#        140160
#        155107
#        172715
#        185677
#        204910
#        219312
#        236177
#        254832
#        273232
#        292957
#
# Disc length: 4134 seconds
#
# Revision: 6
# Processed by: cddbd v1.5.2PL0 Copyright (c) Steve Scherf et al.
# Submitted via: ExactAudioCopy v0.99pb1
#
DISCID=10102412
DTITLE=Various Artist - Escapes II
DYEAR=1997
DGENRE=New Age
TTITLE0=Loreena McKennitt - The Bonny Swans
TTITLE1=Enigma - Return To Innocence
TTITLE2=Adiemus - Adiemus
TTITLE3=Kenny G - Songbird
TTITLE4=B-Tribe - Fiesta Fatale
TTITLE5=Paradise - Theme From Wild Orchid
TTITLE6=Sade - Mermaid
TTITLE7=Willie And Lobo - Wellentanzer
TTITLE8=Mythos - November
TTITLE9=Scripture - Escapes
TTITLE10=Hiroshima - Walking With Angels
TTITLE11=Julee Cruise - Falling
TTITLE12=Michael Nyman - Theme From The Piano
TTITLE13=Massive Attack - Heat Miser
TTITLE14=Mike Oldfield - Women Of Ireland
TTITLE15=Sacred Spirit - Yeha-Noha
TTITLE16=Vangelis - Song Of The Seas
TTITLE17=Allegri - Miserere Mei, Deus
EXTD=
EXTT0=
EXTT1=
EXTT2=
EXTT3=
EXTT4=
EXTT5=
EXTT6=
EXTT7=
EXTT8=
EXTT9=
EXTT10=
EXTT11=
EXTT12=
EXTT13=
EXTT14=
EXTT15=
EXTT16=
EXTT17=
PLAYORDER=
